                    <svg data-v-423bf9ae=""  xmlns="http://www.w3.org/2000/svg" width="50" viewBox="0 0 310 90"
                        class="iconLeftSlogan">
                        <!---->
                        <!---->
                        <!---->
                        <g data-v-423bf9ae="" id="33a53eba-dbb4-44af-ab8b-57c6a12c35d5" fill="rgb(188, 255, 2)"
                            transform="matrix(6.403414581220984,0,0,6.403414581220984,101.56187214966606,-46.87299631059372)">
                            <path
                                d="M3.14 7.43L3.14 7.43L3.14 7.43Q3.50 7.43 4.00 7.72L4.00 7.72L4.00 7.72Q4.51 8.01 4.51 8.39L4.51 8.39L4.51 8.39Q4.51 8.78 4.21 9.09L4.21 9.09L4.21 9.09Q3.91 9.39 3.53 9.39L3.53 9.39L3.53 9.39Q2.95 9.39 2.73 8.86L2.73 8.86L2.73 8.86Q2.70 8.78 2.64 8.78L2.64 8.78L2.64 8.78Q2.58 8.78 2.18 8.95L2.18 8.95L2.18 8.95Q1.78 9.11 1.64 9.18L1.64 9.18L1.64 9.18Q1.50 9.25 1.50 9.32L1.50 9.32L1.50 9.32Q1.50 9.38 1.69 9.48L1.69 9.48L1.69 9.48Q4.19 10.15 4.19 11.54L4.19 11.54L4.19 11.54Q4.19 12.03 3.80 12.55L3.80 12.55L3.80 12.55Q3.42 13.08 2.72 13.41L2.72 13.41L2.72 13.41Q2.02 13.75 1.37 13.75L1.37 13.75L1.37 13.75Q0.73 13.75 0.47 13.40L0.47 13.40L0.47 13.40Q0.21 13.05 0.21 12.39L0.21 12.39L0.21 12.39Q0.21 11.73 0.67 11.41L0.67 11.41L0.67 11.41Q1.29 11.00 1.68 11.00L1.68 11.00L1.68 11.00Q1.78 11.00 1.78 11.05L1.78 11.05L1.78 11.05Q1.78 11.10 1.56 11.23L1.56 11.23L1.56 11.23Q1.34 11.35 1.10 11.59L1.10 11.59L1.10 11.59Q0.85 11.83 0.85 11.98L0.85 11.98L0.85 11.98Q0.85 12.12 1.19 12.12L1.19 12.12L1.19 12.12Q2.09 12.12 2.95 11.62L2.95 11.62L2.95 11.62Q3.15 11.52 3.15 11.39L3.15 11.39L3.15 11.39Q3.15 11.26 2.86 11.12L2.86 11.12L2.86 11.12Q2.56 10.98 1.87 10.71L1.87 10.71L1.87 10.71Q1.18 10.44 0.78 10.25L0.78 10.25L0.78 10.25Q0.38 10.07 0.38 9.63L0.38 9.63L0.38 9.63Q0.38 9.51 0.44 9.27L0.44 9.27L0.44 9.27Q0.50 9.04 0.52 8.96L0.52 8.96L0.52 8.96Q0.59 8.47 0.96 8.29L0.96 8.29L0.96 8.29Q1.33 8.11 2.56 7.53L2.56 7.53L2.56 7.53Q2.77 7.43 3.14 7.43ZM8.27 11.47L8.27 11.47L8.27 11.47Q8.27 12.36 7.70 13.20L7.70 13.20L7.70 13.20Q7.13 14.04 6.24 14.04L6.24 14.04L6.24 14.04Q5.54 14.04 5.13 13.20L5.13 13.20L5.13 13.20Q4.72 12.35 4.72 11.40L4.72 11.40L4.72 11.40Q4.72 10.46 5.23 9.34L5.23 9.34L5.23 9.34Q5.74 8.22 6.57 7.55L6.57 7.55L6.57 7.55Q6.75 7.38 7.03 7.38L7.03 7.38L7.03 7.38Q7.31 7.38 7.69 7.70L7.69 7.70L7.69 7.70Q7.88 7.88 7.88 8.46L7.88 8.46L7.88 8.46Q7.88 9.03 7.55 10.25L7.55 10.25L7.55 10.25Q7.46 10.56 7.32 10.56L7.32 10.56L7.32 10.56Q7.06 10.56 6.92 9.06L6.92 9.06L6.92 9.06Q6.90 8.82 6.89 8.76L6.89 8.76L6.89 8.76Q6.20 9.52 5.82 10.48L5.82 10.48L5.82 10.48Q5.43 11.44 5.43 12.33L5.43 12.33L5.43 12.33Q5.43 12.80 5.74 12.80L5.74 12.80L5.74 12.80Q6.27 12.80 7.42 11.84L7.42 11.84L7.42 11.84Q7.63 11.66 7.73 11.57L7.73 11.57L7.73 11.57Q7.83 11.48 8.02 11.30L8.02 11.30L8.02 11.30Q8.22 11.13 8.25 11.10L8.25 11.10L8.25 11.10Q8.27 11.23 8.27 11.47ZM12.85 10.58L12.85 10.58L12.85 10.58Q12.95 10.58 12.95 11.16L12.95 11.16L12.95 11.16Q12.95 11.75 12.56 12.33L12.56 12.33L12.56 12.33Q12.39 12.67 12.02 13.11L12.02 13.11L12.02 13.11Q11.65 13.55 11.52 13.65L11.52 13.65L11.52 13.65Q11.14 13.92 10.91 13.92L10.91 13.92L10.91 13.92Q10.68 13.92 10.57 13.89L10.57 13.89L10.57 13.89Q10.46 13.86 10.35 13.77L10.35 13.77L10.35 13.77Q10.25 13.68 10.18 13.63L10.18 13.63L10.18 13.63Q10.12 13.58 10.03 13.43L10.03 13.43L10.03 13.43Q9.94 13.29 9.91 13.24L9.91 13.24L9.91 13.24Q9.88 13.20 9.79 13.02L9.79 13.02L9.79 13.02Q9.69 12.84 9.69 12.82L9.69 12.82L9.69 12.82Q9.42 12.33 9.42 11.89L9.42 11.89L9.42 11.89Q9.42 11.45 9.50 11.07L9.50 11.07L9.50 11.07Q9.58 10.68 9.74 10.12L9.74 10.12L9.74 10.12Q9.91 9.56 9.95 9.41L9.95 9.41L9.95 9.41Q9.74 9.67 9.39 9.98L9.39 9.98L9.39 9.98Q9.25 10.09 9.09 10.09L9.09 10.09L9.09 10.09Q8.93 10.09 8.83 9.95L8.83 9.95L8.83 9.95Q8.72 9.80 8.55 9.31L8.55 9.31L8.55 9.31Q8.39 8.82 8.39 8.64L8.39 8.64L8.39 8.64Q8.39 8.47 8.61 8.10L8.61 8.10L8.61 8.10Q8.83 7.73 8.88 7.60L8.88 7.60L8.88 7.60Q8.95 7.35 9.09 7.35L9.09 7.35L9.09 7.35Q9.16 7.35 9.42 7.50L9.42 7.50L9.42 7.50Q9.69 7.64 9.77 8.06L9.77 8.06L9.77 8.06Q9.80 8.23 9.90 8.23L9.90 8.23L9.90 8.23Q9.94 8.23 10.14 8.08L10.14 8.08L10.14 8.08Q10.35 7.92 10.59 7.92L10.59 7.92L10.59 7.92Q10.84 7.92 11.33 8.37L11.33 8.37L11.33 8.37Q11.49 8.54 11.49 8.85L11.49 8.85L11.49 8.85Q11.49 9.16 11.46 9.28L11.46 9.28L11.46 9.28Q11.42 9.41 11.38 9.45L11.38 9.45L11.38 9.45Q11.26 9.55 11.19 9.72L11.19 9.72L11.19 9.72Q11.13 9.90 10.81 11.04L10.81 11.04L10.81 11.04Q10.50 12.18 10.50 12.29L10.50 12.29L10.50 12.29Q10.50 12.40 10.58 12.40L10.58 12.40L10.58 12.40Q10.70 12.40 11.48 11.73L11.48 11.73L11.48 11.73Q12.26 11.06 12.61 10.74L12.61 10.74L12.61 10.74Q12.82 10.58 12.85 10.58ZM16.00 11.89L16.00 11.89L16.00 11.89Q14.85 13.94 14.25 13.94L14.25 13.94L14.25 13.94Q13.82 13.94 13.47 13.41L13.47 13.41L13.47 13.41Q13.37 13.27 13.26 12.97L13.26 12.97L13.26 12.97Q13.15 12.67 12.98 12.42L12.98 12.42L12.98 12.42Q12.82 12.17 12.82 11.74L12.82 11.74L12.82 11.74Q12.82 11.31 12.99 10.98L12.99 10.98L12.99 10.98Q14.14 8.71 15.41 7.87L15.41 7.87L15.41 7.87Q15.58 7.74 15.81 7.74L15.81 7.74L15.81 7.74Q16.03 7.74 16.37 7.99L16.37 7.99L16.37 7.99Q16.56 8.19 16.60 8.33L16.60 8.33L16.60 8.33Q16.67 8.64 16.67 8.71L16.67 8.71L16.67 8.71Q17.16 8.88 17.16 9.32L17.16 9.32L17.16 9.32Q17.16 9.63 17.00 10.72L17.00 10.72L17.00 10.72Q16.83 11.80 16.80 12.33L16.80 12.33L16.80 12.33Q16.80 12.63 17.00 12.63L17.00 12.63L17.00 12.63Q17.22 12.63 17.80 11.84L17.80 11.84L17.80 11.84Q18.38 11.06 18.47 11.06L18.47 11.06L18.47 11.06Q18.61 11.06 18.61 11.52L18.61 11.52L18.58 12.21L18.58 12.21Q18.58 12.60 18.23 13.28L18.23 13.28L18.23 13.28Q17.88 13.96 17.33 13.96L17.33 13.96L17.33 13.96Q17.00 13.96 16.80 13.73L16.80 13.73L16.80 13.73Q16.73 13.66 16.59 13.45L16.59 13.45L16.59 13.45Q16.16 12.82 16.00 11.89ZM16.13 8.65L16.13 8.65L16.13 8.65Q14.36 10.26 13.89 12.33L13.89 12.33L13.89 12.33Q15.30 11.12 16.13 8.65ZM19.17 10.33L19.17 10.33L19.18 10.09L19.18 10.09Q19.18 9.73 18.96 9.48L18.96 9.48L18.96 9.48Q18.75 9.24 18.75 9.17L18.75 9.17L18.75 9.17Q18.75 9.10 18.84 9.06L18.84 9.06L18.84 9.06Q18.93 9.02 19.04 9.00L19.04 9.00L19.04 9.00Q19.15 8.97 19.26 8.83L19.26 8.83L19.26 8.83Q19.38 8.68 19.45 8.20L19.45 8.20L19.45 8.20Q19.52 7.73 19.52 7.52L19.52 7.52L19.52 7.52Q19.52 7.32 19.64 7.32L19.64 7.32L19.64 7.32Q19.77 7.32 19.87 7.41L19.87 7.41L19.87 7.41Q19.96 7.49 20.01 7.57L20.01 7.57L20.01 7.57Q20.06 7.64 20.13 7.80L20.13 7.80L20.13 7.80Q20.20 7.95 20.23 7.99L20.23 7.99L20.23 7.99Q20.69 7.84 21 7.84L21 7.84L21 7.84Q21.80 7.84 22.38 8.62L22.38 8.62L22.38 8.62Q22.96 9.39 22.96 10.21L22.96 10.21L22.96 10.21Q22.96 10.50 22.89 10.88L22.89 10.88L22.89 10.88Q22.46 12.75 21.55 13.45L21.55 13.45L21.55 13.45Q21.24 13.71 20.99 13.71L20.99 13.71L20.99 13.71Q20.73 13.71 20.57 13.50L20.57 13.50L20.57 13.50Q20.40 13.30 20.33 12.98L20.33 12.98L20.33 12.98Q20.20 12.40 20.20 11.65L20.20 11.65L20.20 11.65Q20.20 10.89 20.37 10.89L20.37 10.89L20.37 10.89Q20.40 10.89 20.52 11.26L20.52 11.26L20.52 11.26Q20.64 11.62 20.89 11.62L20.89 11.62L20.89 11.62Q21.14 11.62 21.27 11.37L21.27 11.37L21.27 11.37Q21.49 10.98 21.70 10.38L21.70 10.38L21.70 10.38Q21.91 9.79 21.91 9.46L21.91 9.46L21.91 9.46Q21.91 9.13 21.60 9.13L21.60 9.13L21.60 9.13Q21.42 9.13 21.20 9.23L21.20 9.23L21.20 9.23Q20.33 9.58 20.05 10.81L20.05 10.81L20.05 10.81Q19.56 12.99 19.56 14.62L19.56 14.62L19.56 14.62Q19.56 15.39 19.64 15.89L19.64 15.89L19.68 16.21L19.68 16.21Q19.68 16.38 19.54 16.53L19.54 16.53L19.54 16.53Q19.40 16.69 19.24 16.69L19.24 16.69L19.24 16.69Q18.79 16.69 18.79 14.59L18.79 14.59L18.79 14.59Q18.79 13.27 19.17 10.33ZM27.61 11.89L27.61 11.89L27.61 11.89Q27.61 14.01 25.45 14.01L25.45 14.01L25.45 14.01Q24.56 14.01 24.14 13.55L24.14 13.55L24.14 13.55Q23.73 13.09 23.42 12.14L23.42 12.14L23.42 12.14Q23.31 11.77 23.31 11.36L23.31 11.36L23.31 11.36Q23.31 10.95 23.68 10.25L23.68 10.25L23.68 10.25Q24.05 9.56 24.50 9.04L24.50 9.04L24.50 9.04Q24.56 8.27 24.85 8.27L24.85 8.27L24.85 8.27Q25.00 8.27 25.06 8.46L25.06 8.46L25.06 8.46Q25.35 8.19 25.77 7.94L25.77 7.94L25.77 7.94Q26.19 7.69 26.53 7.69L26.53 7.69L26.53 7.69Q26.87 7.69 27.22 8.08L27.22 8.08L27.22 8.08Q27.58 8.47 27.58 8.88L27.58 8.88L27.58 8.88Q27.58 9.30 27.01 10.01L27.01 10.01L27.01 10.01Q25.93 11.35 25.31 11.35L25.31 11.35L25.31 11.35Q24.86 11.35 24.61 10.61L24.61 10.61L24.61 10.61Q24.60 10.64 24.48 10.84L24.48 10.84L24.48 10.84Q24.36 11.05 24.31 11.14L24.31 11.14L24.31 11.14Q24.26 11.24 24.18 11.41L24.18 11.41L24.18 11.41Q24.04 11.73 24.04 11.98L24.04 11.98L24.04 11.98Q24.04 12.56 24.61 12.56L24.61 12.56L24.61 12.56Q25.56 12.56 26.23 12.16L26.23 12.16L26.23 12.16Q26.89 11.76 27.55 10.95L27.55 10.95L27.55 10.95Q27.61 11.56 27.61 11.89ZM25.33 10.19L25.33 10.19Q25.55 10.19 25.99 9.65L25.99 9.65L25.99 9.65Q26.43 9.10 26.43 8.90L26.43 8.90L26.43 8.90Q26.43 8.69 26.29 8.69L26.29 8.69L26.29 8.69Q26.14 8.69 25.78 9.06L25.78 9.06L25.78 9.06Q25.42 9.42 25.21 9.69L25.21 9.69L25.21 9.69Q25.19 9.86 25.19 9.94L25.19 9.94L25.19 9.94Q25.19 10.19 25.33 10.19L25.33 10.19ZM32.35 10.58L32.35 10.58L32.35 10.58Q32.45 10.58 32.45 11.16L32.45 11.16L32.45 11.16Q32.45 11.75 32.06 12.33L32.06 12.33L32.06 12.33Q31.89 12.67 31.52 13.11L31.52 13.11L31.52 13.11Q31.15 13.55 31.02 13.65L31.02 13.65L31.02 13.65Q30.65 13.92 30.42 13.92L30.42 13.92L30.42 13.92Q30.18 13.92 30.07 13.89L30.07 13.89L30.07 13.89Q29.96 13.86 29.86 13.77L29.86 13.77L29.86 13.77Q29.75 13.68 29.69 13.63L29.69 13.63L29.69 13.63Q29.62 13.58 29.53 13.43L29.53 13.43L29.53 13.43Q29.44 13.29 29.41 13.24L29.41 13.24L29.41 13.24Q29.39 13.20 29.29 13.02L29.29 13.02L29.29 13.02Q29.19 12.84 29.19 12.82L29.19 12.82L29.19 12.82Q28.92 12.33 28.92 11.89L28.92 11.89L28.92 11.89Q28.92 11.45 29.00 11.07L29.00 11.07L29.00 11.07Q29.08 10.68 29.25 10.12L29.25 10.12L29.25 10.12Q29.41 9.56 29.46 9.41L29.46 9.41L29.46 9.41Q29.25 9.67 28.90 9.98L28.90 9.98L28.90 9.98Q28.76 10.09 28.60 10.09L28.60 10.09L28.60 10.09Q28.43 10.09 28.33 9.95L28.33 9.95L28.33 9.95Q28.22 9.80 28.06 9.31L28.06 9.31L28.06 9.31Q27.89 8.82 27.89 8.64L27.89 8.64L27.89 8.64Q27.89 8.47 28.11 8.10L28.11 8.10L28.11 8.10Q28.34 7.73 28.38 7.60L28.38 7.60L28.38 7.60Q28.45 7.35 28.59 7.35L28.59 7.35L28.59 7.35Q28.66 7.35 28.92 7.50L28.92 7.50L28.92 7.50Q29.19 7.64 29.27 8.06L29.27 8.06L29.27 8.06Q29.30 8.23 29.40 8.23L29.40 8.23L29.40 8.23Q29.44 8.23 29.65 8.08L29.65 8.08L29.65 8.08Q29.85 7.92 30.09 7.92L30.09 7.92L30.09 7.92Q30.34 7.92 30.83 8.37L30.83 8.37L30.83 8.37Q31.00 8.54 31.00 8.85L31.00 8.85L31.00 8.85Q31.00 9.16 30.96 9.28L30.96 9.28L30.96 9.28Q30.93 9.41 30.88 9.45L30.88 9.45L30.88 9.45Q30.76 9.55 30.70 9.72L30.70 9.72L30.70 9.72Q30.63 9.90 30.32 11.04L30.32 11.04L30.32 11.04Q30.00 12.18 30.00 12.29L30.00 12.29L30.00 12.29Q30.00 12.40 30.09 12.40L30.09 12.40L30.09 12.40Q30.20 12.40 30.98 11.73L30.98 11.73L30.98 11.73Q31.77 11.06 32.12 10.74L32.12 10.74L32.12 10.74Q32.33 10.58 32.35 10.58Z">
                            </path>
                        </g>
                        <!---->
                        <g data-v-423bf9ae="" id="9bd49be9-bf59-4bdf-90f3-eb4ba40cda29"
                            transform="matrix(1.5976142398030284,0,0,1.5976142398030284,-10.368863248935305,-6.589461470634248)"
                            stroke="none" fill="black">
                            <path
                                d="M37.34 39.432l4.735-33.388a1.503 1.503 0 0 0-1.486-1.711H24.41a1.5 1.5 0 0 0-1.486 1.711l4.734 33.389c-8.601 1.249-15.611 5.751-18.965 11.707-.072.101-.13.211-.175.328-1.265 2.36-1.966 4.937-1.966 7.625 0 .037.003.098.006.146a1.5 1.5 0 0 0 1.499 1.428H56.94a1.5 1.5 0 0 0 1.497-1.406c.005-.056.009-.122.009-.168.001-9.656-8.968-17.9-21.106-19.661zm1.522-32.099L33.64 44.146h-2.283l-5.22-36.813h12.725zm-10.78 35.079l.488 3.445a1.5 1.5 0 0 0 1.485 1.289h4.888a1.5 1.5 0 0 0 1.485-1.289l.489-3.446c6.587.956 12.103 3.987 15.358 8.094h-39.55c3.256-4.105 8.771-7.136 15.357-8.093zM9.634 57.667a13.252 13.252 0 0 1 1.204-4.162h43.324a13.226 13.226 0 0 1 1.204 4.162H9.634z">
                            </path>
                            <path
                                d="M36.926 13.021a4.431 4.431 0 0 0-4.425-4.427c-2.441 0-4.428 1.986-4.428 4.427s1.986 4.427 4.428 4.427a4.432 4.432 0 0 0 4.425-4.427zm-5.853 0a1.427 1.427 0 1 1 2.851 0 1.427 1.427 0 0 1-2.851 0z">
                            </path>
                        </g>
                        <!---->
                        <g data-v-423bf9ae="" id="2c8e448a-4787-4112-a511-a49cf03ed7fb" fill="rgb(188, 255, 2)"
                            transform="matrix(1.9631150349656958,0,0,1.9631150349656958,102.35692139910098,45.27663799636629)">
                            <path
                                d="M6.19 9.60L6.19 9.60L6.19 9.60Q6.17 9.87 6.10 10.16L6.10 10.16L6.10 10.16Q6.02 10.44 5.91 10.68L5.91 10.68L5.91 10.68Q5.80 10.91 5.67 11.06L5.67 11.06L5.67 11.06Q5.54 11.21 5.43 11.21L5.43 11.21L5.43 11.21Q5.28 11.20 5.25 11.00L5.25 11.00L5.25 11.00Q5.25 10.96 5.29 10.87L5.29 10.87L5.29 10.87Q5.32 10.78 5.36 10.67L5.36 10.67L5.36 10.67Q5.40 10.56 5.44 10.44L5.44 10.44L5.44 10.44Q5.47 10.33 5.47 10.25L5.47 10.25L5.47 10.25Q5.47 10.05 5.38 9.92L5.38 9.92L5.38 9.92Q5.29 9.79 5.14 9.79L5.14 9.79L5.14 9.79Q4.58 9.79 4.28 10.49L4.28 10.49L4.28 10.49Q3.99 11.19 3.99 12.54L3.99 12.54L3.99 12.54Q3.99 12.68 4.00 12.71L4.00 12.71L4.00 12.71Q4.30 12.70 4.53 12.69L4.53 12.69L4.53 12.69Q4.76 12.68 4.98 12.68L4.98 12.68L4.98 12.68Q5.00 12.71 5.00 12.80L5.00 12.80L5.00 12.80Q5.00 12.92 4.94 12.98L4.94 12.98L4.94 12.98Q4.62 13.05 4.43 13.10L4.43 13.10L4.43 13.10Q4.24 13.15 4.14 13.19L4.14 13.19L4.14 13.19Q4.05 13.23 4.03 13.28L4.03 13.28L4.03 13.28Q4.00 13.33 4.00 13.41L4.00 13.41L4.00 13.41Q4.00 13.52 4.01 13.64L4.01 13.64L4.01 13.64Q4.02 13.75 4.02 13.92L4.02 13.92L4.02 13.92Q4.02 15.09 3.38 15.81L3.38 15.81L3.38 15.81Q2.74 16.52 1.61 16.63L1.61 16.63L1.61 16.63Q1.41 16.62 1.20 16.52L1.20 16.52L1.20 16.52Q0.99 16.42 0.81 16.27L0.81 16.27L0.81 16.27Q0.62 16.11 0.48 15.93L0.48 15.93L0.48 15.93Q0.34 15.74 0.28 15.54L0.28 15.54L0.28 15.54Q0.28 15.01 0.50 14.53L0.50 14.53L0.50 14.53Q0.73 14.04 1.11 13.67L1.11 13.67L1.11 13.67Q1.50 13.30 2.02 13.07L2.02 13.07L2.02 13.07Q2.55 12.84 3.16 12.80L3.16 12.80L3.16 12.80Q3.16 12.45 3.09 12.11L3.09 12.11L3.09 12.11Q3.02 11.77 2.95 11.46L2.95 11.46L2.95 11.46Q2.87 11.14 2.80 10.84L2.80 10.84L2.80 10.84Q2.73 10.54 2.73 10.25L2.73 10.25L2.73 10.25Q2.73 9.87 2.88 9.50L2.88 9.50L2.88 9.50Q3.04 9.13 3.29 8.81L3.29 8.81L3.29 8.81Q3.54 8.50 3.88 8.27L3.88 8.27L3.88 8.27Q4.21 8.05 4.58 7.97L4.58 7.97L4.58 7.97Q4.73 8.01 4.99 8.21L4.99 8.21L4.99 8.21Q5.25 8.41 5.50 8.67L5.50 8.67L5.50 8.67Q5.75 8.92 5.95 9.18L5.95 9.18L5.95 9.18Q6.15 9.44 6.19 9.60ZM1.57 15.99L1.57 15.99L1.57 15.99Q1.90 15.85 2.21 15.58L2.21 15.58L2.21 15.58Q2.51 15.32 2.73 14.98L2.73 14.98L2.73 14.98Q2.95 14.64 3.09 14.27L3.09 14.27L3.09 14.27Q3.22 13.89 3.22 13.52L3.22 13.52L3.22 13.52Q2.94 13.57 2.60 13.78L2.60 13.78L2.60 13.78Q2.27 14 1.97 14.30L1.97 14.30L1.97 14.30Q1.68 14.60 1.48 14.92L1.48 14.92L1.48 14.92Q1.29 15.25 1.29 15.48L1.29 15.48L1.29 15.48Q1.29 15.79 1.57 15.99ZM13.29 12.71L13.29 12.71L13.29 12.71Q13.29 11.91 13.62 11.16L13.62 11.16L13.62 11.16Q13.94 10.42 14.48 9.84L14.48 9.84L14.48 9.84Q15.02 9.25 15.72 8.90L15.72 8.90L15.72 8.90Q16.41 8.54 17.15 8.54L17.15 8.54L17.15 8.54Q17.88 8.54 18.27 8.90L18.27 8.90L18.27 8.90Q18.66 9.27 18.66 9.94L18.66 9.94L18.66 9.94Q18.66 10.26 18.57 10.56L18.57 10.56L18.57 10.56Q18.48 10.86 18.33 11.10L18.33 11.10L18.33 11.10Q18.19 11.34 17.99 11.49L17.99 11.49L17.99 11.49Q17.79 11.63 17.60 11.63L17.60 11.63L17.60 11.63Q17.43 11.63 17.26 11.53L17.26 11.53L17.26 11.53Q17.08 11.42 16.97 11.26L16.97 11.26L16.97 11.26Q17.91 10.40 17.91 9.70L17.91 9.70L17.91 9.70Q17.91 9.30 17.58 9.30L17.58 9.30L17.58 9.30Q17.30 9.30 16.88 9.56L16.88 9.56L16.88 9.56Q16.46 9.83 16.07 10.26L16.07 10.26L16.07 10.26Q15.47 10.93 15.16 11.75L15.16 11.75L15.16 11.75Q14.84 12.57 14.84 13.47L14.84 13.47L14.84 13.47Q14.84 14.60 15.34 14.83L15.34 14.83L15.34 14.83Q15.55 14.80 15.83 14.70L15.83 14.70L15.83 14.70Q16.11 14.60 16.44 14.44L16.44 14.44L16.44 14.44Q16.76 14.28 17.10 14.07L17.10 14.07L17.10 14.07Q17.44 13.86 17.77 13.62L17.77 13.62L17.77 13.62Q17.82 13.66 17.86 13.75L17.86 13.75L17.86 13.75Q17.91 13.83 17.91 13.90L17.91 13.90L17.91 13.90Q17.67 14.20 17.36 14.48L17.36 14.48L17.36 14.48Q17.05 14.76 16.72 14.99L16.72 14.99L16.72 14.99Q16.38 15.22 16.07 15.38L16.07 15.38L16.07 15.38Q15.75 15.54 15.51 15.58L15.51 15.58L15.51 15.58Q15.05 15.54 14.64 15.29L14.64 15.29L14.64 15.29Q14.24 15.05 13.94 14.66L13.94 14.66L13.94 14.66Q13.64 14.27 13.46 13.76L13.46 13.76L13.46 13.76Q13.29 13.26 13.29 12.71ZM25.75 14.90L25.75 14.90L25.75 14.90Q25.82 14.49 25.99 13.82L25.99 13.82L25.99 13.82Q26.17 13.16 26.40 12.41L26.40 12.41L26.40 12.41Q26.64 11.66 26.91 10.91L26.91 10.91L26.91 10.91Q27.17 10.15 27.43 9.55L27.43 9.55L27.43 9.55Q27.61 9.11 27.75 8.87L27.75 8.87L27.75 8.87Q27.89 8.62 28.06 8.46L28.06 8.46L28.06 8.46Q28.25 8.48 28.46 8.55L28.46 8.55L28.46 8.55Q28.67 8.62 28.87 8.72L28.87 8.72L28.87 8.72Q29.06 8.82 29.22 8.93L29.22 8.93L29.22 8.93Q29.37 9.03 29.46 9.13L29.46 9.13L29.46 9.13Q29.08 9.58 28.79 10.15L28.79 10.15L28.79 10.15Q28.50 10.72 28.21 11.62L28.21 11.62L28.21 11.62Q28.97 10.95 29.55 10.33L29.55 10.33L29.55 10.33Q30.13 9.72 30.63 8.96L30.63 8.96L30.63 8.96Q30.72 8.89 30.93 8.89L30.93 8.89L30.93 8.89Q31.12 8.89 31.30 8.95L31.30 8.95L31.30 8.95Q31.49 9.02 31.56 9.13L31.56 9.13L31.56 9.13Q31.30 9.80 31.30 10.46L31.30 10.46L31.30 10.46Q31.30 11.07 31.49 11.38L31.49 11.38L31.49 11.38Q31.47 11.47 31.30 11.70L31.30 11.70L31.30 11.70Q31.12 11.94 30.91 12.15L30.91 12.15L30.91 12.15Q30.53 11.96 30.24 11.61L30.24 11.61L30.24 11.61Q29.95 11.27 29.81 10.86L29.81 10.86L29.81 10.86Q29.15 11.33 28.69 11.77L28.69 11.77L28.69 11.77Q28.22 12.21 27.89 12.75L27.89 12.75L27.89 12.75Q27.57 13.29 27.34 13.99L27.34 13.99L27.34 13.99Q27.10 14.69 26.89 15.65L26.89 15.65L26.89 15.65Q26.77 15.64 26.59 15.56L26.59 15.56L26.59 15.56Q26.42 15.48 26.24 15.37L26.24 15.37L26.24 15.37Q26.07 15.26 25.93 15.13L25.93 15.13L25.93 15.13Q25.79 15.01 25.75 14.90ZM43.55 9.52L43.55 9.52L43.55 9.52Q43.69 9.52 43.88 9.57L43.88 9.57L43.88 9.57Q44.07 9.62 44.23 9.70L44.23 9.70L44.23 9.70Q44.38 9.77 44.48 9.86L44.48 9.86L44.48 9.86Q44.59 9.94 44.59 10.01L44.59 10.01L44.59 10.01Q44.31 10.60 44.07 11.19L44.07 11.19L44.07 11.19Q43.83 11.79 43.67 12.33L43.67 12.33L43.67 12.33Q43.50 12.88 43.41 13.36L43.41 13.36L43.41 13.36Q43.32 13.83 43.32 14.18L43.32 14.18L43.32 14.18Q43.32 14.57 43.40 14.83L43.40 14.83L43.40 14.83Q43.48 15.09 43.68 15.20L43.68 15.20L43.68 15.20Q43.51 15.32 43.25 15.39L43.25 15.39L43.25 15.39Q42.98 15.46 42.77 15.46L42.77 15.46L42.77 15.46Q42.01 15.46 42.01 14.42L42.01 14.42L42.01 14.42Q42.01 13.62 42.55 12.24L42.55 12.24L42.55 12.24Q42.27 12.88 41.90 13.45L41.90 13.45L41.90 13.45Q41.54 14.01 41.16 14.45L41.16 14.45L41.16 14.45Q40.78 14.88 40.40 15.15L40.40 15.15L40.40 15.15Q40.01 15.43 39.69 15.48L39.69 15.48L39.69 15.48Q39.17 15.46 38.85 14.99L38.85 14.99L38.85 14.99Q38.53 14.52 38.53 13.79L38.53 13.79L38.53 13.79Q38.53 13.01 38.86 12.14L38.86 12.14L38.86 12.14Q39.20 11.27 39.73 10.53L39.73 10.53L39.73 10.53Q40.25 9.79 40.87 9.29L40.87 9.29L40.87 9.29Q41.48 8.79 42.06 8.76L42.06 8.76L42.06 8.76Q42.20 8.81 42.37 8.93L42.37 8.93L42.37 8.93Q42.55 9.06 42.71 9.23L42.71 9.23L42.71 9.23Q42.87 9.39 42.98 9.57L42.98 9.57L42.98 9.57Q43.09 9.74 43.11 9.87L43.11 9.87L43.11 9.87Q42.55 9.95 41.95 10.42L41.95 10.42L41.95 10.42Q41.36 10.88 40.87 11.53L40.87 11.53L40.87 11.53Q40.39 12.18 40.08 12.92L40.08 12.92L40.08 12.92Q39.77 13.66 39.77 14.31L39.77 14.31L39.77 14.31Q39.77 14.57 39.97 14.64L39.97 14.64L39.97 14.64Q40.38 14.56 40.91 13.95L40.91 13.95L40.91 13.95Q41.44 13.34 42.20 12.07L42.20 12.07L42.20 12.07Q42.34 11.82 42.51 11.51L42.51 11.51L42.51 11.51Q42.69 11.20 42.87 10.86L42.87 10.86L42.87 10.86Q43.05 10.53 43.23 10.18L43.23 10.18L43.23 10.18Q43.40 9.84 43.55 9.52ZM51.28 19.81L51.28 19.81L51.28 19.81Q51.09 19.75 51.06 19.39L51.06 19.39L51.06 19.39Q51.00 19.21 50.98 18.96L50.98 18.96L50.98 18.96Q50.96 18.70 50.96 18.38L50.96 18.38L50.96 18.38Q50.96 18.09 51.06 17.58L51.06 17.58L51.06 17.58Q51.16 17.07 51.33 16.42L51.33 16.42L51.33 16.42Q51.51 15.78 51.76 15.03L51.76 15.03L51.76 15.03Q52.01 14.28 52.32 13.51L52.32 13.51L52.32 13.51Q52.70 12.54 52.98 11.84L52.98 11.84L52.98 11.84Q53.26 11.13 53.45 10.61L53.45 10.61L53.45 10.61Q53.63 10.09 53.75 9.76L53.75 9.76L53.75 9.76Q53.87 9.42 53.94 9.18L53.94 9.18L53.94 9.18Q54.00 9.02 54.11 8.78L54.11 8.78L54.11 8.78Q54.22 8.54 54.37 8.29L54.37 8.29L54.37 8.29Q54.52 8.05 54.67 7.83L54.67 7.83L54.67 7.83Q54.82 7.62 54.95 7.50L54.95 7.50L54.95 7.50Q55.44 7.57 55.87 7.76L55.87 7.76L55.87 7.76Q56.31 7.94 56.41 8.11L56.41 8.11L56.41 8.11Q56.21 8.29 55.96 8.67L55.96 8.67L55.96 8.67Q55.71 9.06 55.47 9.51L55.47 9.51L55.47 9.51Q55.23 9.97 55.03 10.44L55.03 10.44L55.03 10.44Q54.84 10.92 54.74 11.28L54.74 11.28L54.74 11.28Q54.88 11.05 55.10 10.77L55.10 10.77L55.10 10.77Q55.33 10.49 55.79 10.00L55.79 10.00L55.79 10.00Q56.31 9.46 56.76 9.18L56.76 9.18L56.76 9.18Q57.22 8.89 57.55 8.89L57.55 8.89L57.55 8.89Q58.09 8.89 58.43 9.18L58.43 9.18L58.43 9.18Q58.77 9.48 58.77 9.94L58.77 9.94L58.77 9.94Q58.77 10.95 58.44 11.94L58.44 11.94L58.44 11.94Q58.10 12.92 57.47 13.72L57.47 13.72L57.47 13.72Q57.23 14.03 56.91 14.31L56.91 14.31L56.91 14.31Q56.59 14.59 56.24 14.80L56.24 14.80L56.24 14.80Q55.89 15.02 55.55 15.15L55.55 15.15L55.55 15.15Q55.22 15.27 54.95 15.27L54.95 15.27L54.95 15.27Q54.70 15.27 54.51 15.17L54.51 15.17L54.51 15.17Q54.32 15.06 54.25 14.91L54.25 14.91L54.25 14.91Q54.80 14.59 55.31 14.01L55.31 14.01L55.31 14.01Q55.83 13.44 56.27 12.69L56.27 12.69L56.27 12.69Q56.71 11.94 57.04 11.07L57.04 11.07L57.04 11.07Q57.37 10.21 57.54 9.31L57.54 9.31L57.54 9.31Q57.01 9.59 56.58 9.92L56.58 9.92L56.58 9.92Q56.15 10.25 55.73 10.78L55.73 10.78L55.73 10.78Q55.23 11.40 54.94 11.77L54.94 11.77L54.94 11.77Q54.64 12.15 54.45 12.42L54.45 12.42L54.45 12.42Q54.26 12.68 54.14 12.91L54.14 12.91L54.14 12.91Q54.03 13.15 53.89 13.48L53.89 13.48L53.89 13.48Q53.69 13.93 53.43 14.67L53.43 14.67L53.43 14.67Q53.17 15.40 52.90 16.31L52.90 16.31L52.90 16.31Q52.63 17.22 52.35 18.25L52.35 18.25L52.35 18.25Q52.08 19.28 51.83 20.30L51.83 20.30L51.83 20.30Q51.67 20.27 51.56 20.08L51.56 20.08L51.56 20.08Q51.45 19.95 51.40 19.89L51.40 19.89L51.40 19.89Q51.35 19.84 51.28 19.81ZM71.29 9.38L71.29 9.38L71.29 9.38Q71.23 10.25 70.98 10.87L70.98 10.87L70.98 10.87Q70.73 11.49 70.26 11.96L70.26 11.96L70.26 11.96Q69.79 12.43 69.12 12.81L69.12 12.81L69.12 12.81Q68.45 13.19 67.55 13.54L67.55 13.54L67.55 13.54Q67.55 13.62 67.54 13.71L67.54 13.71L67.54 13.71Q67.54 13.80 67.54 13.90L67.54 13.90L67.54 13.90Q67.54 14.08 67.56 14.28L67.56 14.28L67.56 14.28Q67.59 14.48 67.66 14.64L67.66 14.64L67.66 14.64Q67.73 14.81 67.86 14.92L67.86 14.92L67.86 14.92Q67.98 15.02 68.18 15.02L68.18 15.02L68.18 15.02Q68.56 15.02 68.92 14.85L68.92 14.85L68.92 14.85Q69.29 14.69 69.62 14.44L69.62 14.44L69.62 14.44Q69.94 14.20 70.23 13.91L70.23 13.91L70.23 13.91Q70.52 13.62 70.74 13.38L70.74 13.38L70.74 13.38Q70.88 13.51 70.98 13.62L70.98 13.62L70.98 13.62Q70.35 14.46 69.60 15.02L69.60 15.02L69.60 15.02Q68.85 15.57 68.18 15.72L68.18 15.72L68.18 15.72Q67.21 15.61 66.68 15.02L66.68 15.02L66.68 15.02Q66.14 14.42 66.14 13.58L66.14 13.58L66.14 13.58Q66.14 13.01 66.30 12.41L66.30 12.41L66.30 12.41Q66.46 11.82 66.75 11.26L66.75 11.26L66.75 11.26Q67.03 10.71 67.42 10.22L67.42 10.22L67.42 10.22Q67.80 9.73 68.24 9.37L68.24 9.37L68.24 9.37Q68.68 9.00 69.15 8.79L69.15 8.79L69.15 8.79Q69.62 8.58 70.08 8.58L70.08 8.58L70.08 8.58Q70.73 8.67 71.29 9.38ZM70.32 9.84L70.32 9.84L70.32 9.84Q69.94 9.90 69.54 10.15L69.54 10.15L69.54 10.15Q69.13 10.40 68.78 10.82L68.78 10.82L68.78 10.82Q68.42 11.24 68.12 11.80L68.12 11.80L68.12 11.80Q67.83 12.36 67.66 13.01L67.66 13.01L67.66 13.01Q68.78 12.45 69.52 11.63L69.52 11.63L69.52 11.63Q70.27 10.81 70.32 9.84ZM78.60 14.90L78.60 14.90L78.60 14.90Q78.67 14.49 78.84 13.82L78.84 13.82L78.84 13.82Q79.02 13.16 79.25 12.41L79.25 12.41L79.25 12.41Q79.49 11.66 79.76 10.91L79.76 10.91L79.76 10.91Q80.02 10.15 80.28 9.55L80.28 9.55L80.28 9.55Q80.46 9.11 80.60 8.87L80.60 8.87L80.60 8.87Q80.74 8.62 80.91 8.46L80.91 8.46L80.91 8.46Q81.10 8.48 81.31 8.55L81.31 8.55L81.31 8.55Q81.52 8.62 81.72 8.72L81.72 8.72L81.72 8.72Q81.91 8.82 82.07 8.93L82.07 8.93L82.07 8.93Q82.22 9.03 82.31 9.13L82.31 9.13L82.31 9.13Q81.93 9.58 81.64 10.15L81.64 10.15L81.64 10.15Q81.35 10.72 81.06 11.62L81.06 11.62L81.06 11.62Q81.82 10.95 82.40 10.33L82.40 10.33L82.40 10.33Q82.98 9.72 83.48 8.96L83.48 8.96L83.48 8.96Q83.57 8.89 83.78 8.89L83.78 8.89L83.78 8.89Q83.97 8.89 84.15 8.95L84.15 8.95L84.15 8.95Q84.34 9.02 84.41 9.13L84.41 9.13L84.41 9.13Q84.15 9.80 84.15 10.46L84.15 10.46L84.15 10.46Q84.15 11.07 84.34 11.38L84.34 11.38L84.34 11.38Q84.32 11.47 84.15 11.70L84.15 11.70L84.15 11.70Q83.97 11.94 83.76 12.15L83.76 12.15L83.76 12.15Q83.38 11.96 83.09 11.61L83.09 11.61L83.09 11.61Q82.80 11.27 82.66 10.86L82.66 10.86L82.66 10.86Q82.00 11.33 81.54 11.77L81.54 11.77L81.54 11.77Q81.07 12.21 80.75 12.75L80.75 12.75L80.75 12.75Q80.42 13.29 80.19 13.99L80.19 13.99L80.19 13.99Q79.95 14.69 79.74 15.65L79.74 15.65L79.74 15.65Q79.62 15.64 79.44 15.56L79.44 15.56L79.44 15.56Q79.27 15.48 79.09 15.37L79.09 15.37L79.09 15.37Q78.92 15.26 78.78 15.13L78.78 15.13L78.78 15.13Q78.64 15.01 78.60 14.90Z">
                            </path>
                        </g>
                    </svg>